<?xml version="1.0" encoding="utf-8"?>
<!-- Svg Vector Icons : http://www.onlinewebfonts.com/icon -->
<!DOCTYPE svg PUBLIC "-//W3C//DTD SVG 1.1//EN" "http://www.w3.org/Graphics/SVG/1.1/DTD/svg11.dtd">
<svg version="1.1" xmlns="http://www.w3.org/2000/svg" xmlns:xlink="http://www.w3.org/1999/xlink" x="0px" y="0px" viewBox="0 0 1000 1000" enable-background="new 0 0 1000 1000" xml:space="preserve">
<metadata> Svg Vector Icons : http://www.onlinewebfonts.com/icon </metadata>
<g><g transform="translate(0.000000,511.000000) scale(0.100000,-0.100000)"><path d="M4665.9,4998.1c-706.2-67.8-1262.8-217.4-1825.3-494.7C1378.3,3783.2,380.8,2402.7,145.4,772.9C-18.1-376.2,265.1-1623,913.5-2598.5c796-1198.9,2032.8-1967,3493.1-2166.5c245.4-33.9,951.6-33.9,1196.9,0c764,103.7,1504.2,379,2104.6,778c1198.9,798,1967,2032.8,2166.5,3493.1c33.9,245.4,33.9,951.6,0,1196.9C9752.9,1588.8,9431.7,2380.8,8911,3073c-177.5,235.4-528.6,600.5-774,805.9c-634.4,530.6-1466.3,915.7-2274.2,1053.3C5459.8,5002.1,4971.1,5028,4665.9,4998.1z M5435.9,4431.6c987.5-97.7,1925.1-544.6,2639.2-1256.8c355.1-357.1,598.5-696.2,827.9-1157c827.9-1659.8,494.7-3658.6-827.9-4983.3c-357.1-355.1-696.2-598.5-1157-827.9c-1659.8-827.9-3658.7-494.7-4983.3,827.9c-355.1,357.1-598.5,696.2-827.9,1157.1C279.1-148.7,612.2,1850.2,1934.9,3174.8c357.1,355.1,696.2,598.5,1157,827.9C3814,4361.7,4628,4511.3,5435.9,4431.6z"/><path d="M3470.9,2340.9c-35.9-20-79.8-57.9-93.8-83.8c-39.9-73.8-39.9-4263.1,0-4319c41.9-55.8,389-67.8,486.8-16l67.8,35.9l-8,1857.3l-6,1855.3l189.5-379C4368.6,774.9,5647.4-1629,5749.1-1790.5c111.7-179.5,181.5-249.4,299.2-301.2c89.8-37.9,127.7-41.9,307.2-33.9c193.5,8,209.5,13.9,265.3,65.8c31.9,31.9,65.8,85.8,71.8,123.7c6,35.9,19.9,65.8,29.9,65.8c22,0,23.9,4129.4,2,4163.4c-27.9,45.9-127.7,65.8-309.2,65.8c-149.6-2-191.5-8-227.4-37.9l-45.9-37.9l-2-1783.4v-1781.4l-135.6,269.3C5765.1-531.8,5360.1,236.3,4885.3,1112c-255.3,472.8-476.8,885.7-490.8,921.7c-59.8,141.6-151.6,249.4-255.3,297.2c-89.8,41.9-129.7,47.9-351.1,45.9C3586.6,2376.8,3524.8,2370.8,3470.9,2340.9z"/></g></g>
</svg>