<?xml version="1.0" encoding="UTF-8"?>
<svg xmlns="http://www.w3.org/2000/svg" xmlns:xlink="http://www.w3.org/1999/xlink" width="38pt" height="45pt" viewBox="0 0 38 45" version="1.1">
<g id="surface1">
<path style=" stroke:none;fill-rule:nonzero;fill:rgb(93.333333%,29.803922%,17.254902%);fill-opacity:1;" d="M 32.402344 13.097656 L 28.992188 16.433594 C 34.589844 21.902344 34.589844 30.710938 28.992188 36.097656 C 23.398438 41.570312 14.390625 41.570312 8.878906 36.097656 C 3.285156 30.625 3.285156 21.824219 8.878906 16.433594 L 17.757812 7.75 L 19.023438 6.515625 L 19.023438 -0.03125 L 5.640625 13.054688 C -1.8125 20.339844 -1.8125 32.109375 5.640625 39.390625 C 13.089844 46.671875 25.121094 46.671875 32.445312 39.390625 C 39.851562 32.109375 39.851562 20.421875 32.402344 13.097656 Z M 32.402344 13.097656 "/>
<path style=" stroke:none;fill-rule:nonzero;fill:rgb(93.333333%,29.803922%,17.254902%);fill-opacity:1;" d="M 28.195312 9.886719 C 28.195312 11.226562 27.082031 12.316406 25.714844 12.316406 C 24.339844 12.316406 23.230469 11.226562 23.230469 9.886719 C 23.230469 8.546875 24.339844 7.460938 25.714844 7.460938 C 27.082031 7.460938 28.195312 8.546875 28.195312 9.886719 Z M 28.195312 9.886719 "/>
</g>
</svg>
