<?xml version="1.0" encoding="UTF-8"?>
<svg xmlns="http://www.w3.org/2000/svg" xmlns:xlink="http://www.w3.org/1999/xlink" width="40pt" height="48pt" viewBox="0 0 40 48" version="1.1">
<g id="surface1">
<path style=" stroke:none;fill-rule:nonzero;fill:rgb(93.333333%,29.803922%,17.254902%);fill-opacity:1;" d="M 34.109375 13.972656 L 30.519531 17.527344 C 36.410156 23.363281 36.410156 32.757812 30.519531 38.503906 C 24.628906 44.34375 15.148438 44.34375 9.347656 38.503906 C 3.457031 32.667969 3.457031 23.277344 9.347656 17.527344 L 18.691406 8.265625 L 20.023438 6.949219 L 20.023438 -0.03125 L 5.9375 13.925781 C -1.90625 21.695312 -1.90625 34.25 5.9375 42.015625 C 13.777344 49.785156 26.445312 49.785156 34.152344 42.015625 C 41.949219 34.25 41.949219 21.785156 34.109375 13.972656 Z M 34.109375 13.972656 "/>
<path style=" stroke:none;fill-rule:nonzero;fill:rgb(93.333333%,29.803922%,17.254902%);fill-opacity:1;" d="M 29.679688 10.546875 C 29.679688 11.976562 28.507812 13.136719 27.066406 13.136719 C 25.621094 13.136719 24.453125 11.976562 24.453125 10.546875 C 24.453125 9.117188 25.621094 7.957031 27.066406 7.957031 C 28.507812 7.957031 29.679688 9.117188 29.679688 10.546875 Z M 29.679688 10.546875 "/>
</g>
</svg>
