<?xml version="1.0" encoding="UTF-8"?>
<svg xmlns="http://www.w3.org/2000/svg" xmlns:xlink="http://www.w3.org/1999/xlink" width="40pt" height="42pt" viewBox="0 0 40 42" version="1.1">
<g id="surface1">
<path style=" stroke:none;fill-rule:nonzero;fill:rgb(89.803922%,35.686275%,17.647059%);fill-opacity:1;" d="M 22.769531 6.453125 L 22.769531 12.90625 L 34.152344 19.359375 L 34.152344 12.90625 Z M 0 12.90625 L 0 19.359375 L 5.691406 22.585938 L 5.691406 16.132812 Z M 17.078125 16.132812 L 11.382812 19.359375 L 11.382812 38.714844 L 17.078125 41.941406 L 17.078125 29.039062 L 22.769531 32.265625 L 22.769531 25.8125 L 17.078125 22.585938 Z M 17.078125 16.132812 "/>
<path style=" stroke:none;fill-rule:nonzero;fill:rgb(92.941176%,55.686275%,14.117647%);fill-opacity:1;" d="M 22.769531 6.453125 L 5.691406 16.132812 L 5.691406 22.585938 L 17.078125 16.132812 L 17.078125 22.585938 L 22.769531 19.359375 Z M 39.847656 9.679688 L 34.152344 12.90625 L 34.152344 19.359375 L 39.847656 16.132812 Z M 28.460938 22.585938 L 22.769531 25.8125 L 22.769531 32.265625 L 28.460938 29.039062 Z M 22.769531 32.265625 L 17.078125 29.039062 L 17.078125 41.941406 L 22.769531 38.714844 Z M 22.769531 32.265625 "/>
<path style=" stroke:none;fill-rule:nonzero;fill:rgb(97.254902%,74.901961%,23.529412%);fill-opacity:1;" d="M 22.769531 0 L 0 12.90625 L 5.691406 16.132812 L 22.769531 6.453125 L 34.152344 12.90625 L 39.847656 9.679688 Z M 22.769531 19.359375 L 17.078125 22.585938 L 22.769531 25.8125 L 28.460938 22.585938 Z M 22.769531 19.359375 "/>
</g>
</svg>
